<?xml version="1.0" encoding="iso-8859-1"?>
<!-- Generator: Adobe Illustrator 19.1.1, SVG Export Plug-In . SVG Version: 6.00 Build 0)  -->
<svg xmlns="http://www.w3.org/2000/svg" xmlns:xlink="http://www.w3.org/1999/xlink" version="1.1" id="Layer_1" x="0px" y="0px" viewBox="0 0 48 48" style="enable-background:new 0 0 48 48;" xml:space="preserve">
<polygon style="fill:#FFEE58;" points="47,14 38,18 41,21 33,25 28,21 31,17 24.002,6 17.308,16.703 20,21 15,25 7,21 10,18 1,14   7,42 41,42 "/>
<polygon style="fill:#FFC107;" points="40,20 42,22 42,23 33,28 28,24 28,21 29.444,19.074 24,10 18.672,18.88 20,21 20,24 15,28   6,23 6,22 8,20 1.732,17.417 7,42 24.002,42 41,42 46.267,17.419 "/>
<polygon style="fill:#FFA000;" points="43,33 5,33 5.44,35 42.56,35 "/>
<circle style="fill:#455A64;" cx="24" cy="34" r="8"/>
<circle style="fill:#FFFDE7;" cx="24" cy="34" r="6"/>
<path style="fill:#FF9800;" d="M30,34H18c0-3.314,2.686-6,6-6S30,30.686,30,34z"/>
<path style="fill:#455A64;" d="M17,34c0,0.341,0.041,0.674,0.105,1h13.79C30.959,34.674,31,34.341,31,34s-0.041-0.674-0.105-1  h-13.79C17.041,33.326,17,33.659,17,34z"/>
<circle style="fill:#455A64;" cx="24" cy="34" r="3"/>
<circle style="fill:#FFFFFF;" cx="24" cy="34" r="1"/>
</svg>
