<?xml version="1.0" encoding="iso-8859-1"?>
<!-- Generator: Adobe Illustrator 19.1.1, SVG Export Plug-In . SVG Version: 6.00 Build 0)  -->
<svg xmlns="http://www.w3.org/2000/svg" xmlns:xlink="http://www.w3.org/1999/xlink" version="1.1" id="Layer_1" x="0px" y="0px" viewBox="0 0 48 48" style="enable-background:new 0 0 48 48;" xml:space="preserve">
<polygon style="fill:#FFD600;" points="37,26 47,19 35,21 38.053,14.088 32,18 34,1 24,18.305 14,1 16,18 9.947,14.088 13,21 1,19   11,26 1,33 14,31 10,40 20.458,33 24,41.027 27.583,33 38,40 34,31 47,33 "/>
<g>
	<polygon style="fill:#FFEA00;" points="24,22 33.424,6 34,1 24,18.305  "/>
	<polygon style="fill:#FFEA00;" points="32,20 36.747,17.044 38.053,14.088 32,18  "/>
	<polygon style="fill:#FFEA00;" points="35,21 34,23 42.714,22 47,19  "/>
	<polygon style="fill:#FFEA00;" points="35,27.151 42.61,32.325 47,33 37,26  "/>
</g>
<g>
	<polygon style="fill:#FFEA00;" points="24,22 14.576,6 14,1 24,18.305  "/>
	<polygon style="fill:#FFEA00;" points="16,20 11.253,17.044 9.947,14.088 16,18  "/>
	<polygon style="fill:#FFEA00;" points="13,21 14,23 5.286,22 1,19  "/>
	<polygon style="fill:#FFEA00;" points="13,27.151 5.39,32.325 1,33 11,26  "/>
</g>
<polygon style="fill:#FBC02D;" points="24,25.172 20,29 20.458,33 24,41.027 27.583,33 28,29 "/>
<polygon style="fill:#FFECB3;" points="26,30 24,28 22,30 24,47 "/>
</svg>
